# xmcd
#
# Track frame offsets: 
#        150
#        22512
#        55176
#        62046
#        99674
#        135168
#        164540
#        200367
#        239402
#        267403
#        290883
#
# Disc length: 4233 seconds
#
# Revision: 1
# Processed by: cddbd v1.5.2PL0 Copyright (c) Steve Scherf et al.
# Submitted via: ExactAudioCopy v0.99pb5
#
DISCID=9910870b
DTITLE=Julien Lourau - Quartet Saigon
DYEAR=2008
DGENRE=Jazz
TTITLE0=Diaspora
TTITLE1=Walking on Water
TTITLE2=Saigon intro
TTITLE3=Saigon
TTITLE4=Angels
TTITLE5=Baron Samedi
TTITLE6=Nico
TTITLE7=Around the Corner
TTITLE8=Worship
TTITLE9=Cinquecento
TTITLE10=A House is not a Home
EXTD=YEAR: 2008
EXTT0=
EXTT1=
EXTT2=
EXTT3=
EXTT4=
EXTT5=
EXTT6=
EXTT7=
EXTT8=
EXTT9=
EXTT10=
PLAYORDER=
